<?xml version="1.0" encoding="UTF-8"?>
<svg width="105.81mm" height="105.81mm" version="1.1" viewBox="0 0 105.81 105.81" xmlns="http://www.w3.org/2000/svg" xmlns:cc="http://creativecommons.org/ns#" xmlns:dc="http://purl.org/dc/elements/1.1/" xmlns:rdf="http://www.w3.org/1999/02/22-rdf-syntax-ns#" xmlns:xlink="http://www.w3.org/1999/xlink">
<defs>
<linearGradient id="a" x1="638.81" x2="764.53" y1="-1193.1" y2="-1193.1" gradientTransform="matrix(.84161 0 0 .84161 -526.27 1071.3)" gradientUnits="userSpaceOnUse">
<stop stop-color="#0351a3" offset="0"/>
<stop stop-color="#22b4e3" offset="1"/>
</linearGradient>
</defs>
<metadata>
<rdf:RDF>
<cc:Work rdf:about="">
<dc:format>image/svg+xml</dc:format>
<dc:type rdf:resource="http://purl.org/dc/dcmitype/StillImage"/>
<dc:title/>
</cc:Work>
</rdf:RDF>
</metadata>
<g transform="translate(-11.351 -14.285)">
<path d="m34.104 14.285h60.304c12.605 0 22.753 10.148 22.753 22.753v60.304c0 12.605-10.148 22.753-22.753 22.753h-60.304c-12.605 0-22.753-10.148-22.753-22.753v-60.304c0-12.605 10.148-22.753 22.753-22.753z" fill="url(#a)"/>
<path d="m67.773 36.094c-10.581 0-21.163 0.0971-31.744 0.0971v62.096h21.453v-14.576h10.291c32.995 0 32.898-47.616 0-47.616zm-23.95 14.902c1.8573 0 3.3628 1.5056 3.3629 3.3631 1.8e-4 1.8572-1.5055 3.363-3.3629 3.363-1.8574 0-3.3632-1.5058-3.363-3.363 0-1.8575 1.5057-3.3631 3.363-3.3631zm39.116 0c1.8573 0 3.3628 1.5056 3.3629 3.3631 8.2e-5 1.8572-1.5055 3.363-3.3629 3.363-1.8574 0-3.363-1.5058-3.3629-3.363 9e-5 -1.8575 1.5057-3.3631 3.3629-3.3631zm-32.523 0.26805h11.537v6.1903h-11.537zm15.072 0h11.537v6.1903h-11.537zm-25.028 13.059h11.537v6.1903h-11.537z" fill="#fff"/>
</g>
</svg>
