<?xml version="1.0" encoding="UTF-8" standalone="no"?>
<!DOCTYPE svg PUBLIC "-//W3C//DTD SVG 1.1//EN" "http://www.w3.org/Graphics/SVG/1.1/DTD/svg11.dtd">
<svg width="100%" height="100%" viewBox="0 0 300 300" version="1.1" xmlns="http://www.w3.org/2000/svg" xmlns:xlink="http://www.w3.org/1999/xlink" xml:space="preserve" xmlns:serif="http://www.serif.com/" style="fill-rule:evenodd;clip-rule:evenodd;stroke-linejoin:round;stroke-miterlimit:2;">
    <g transform="matrix(1,0,0,1,-152.175,-205.495)">
        <rect x="152.175" y="205.495" width="300" height="300" style="fill:white;"/>
        <g transform="matrix(0.949842,0,0,0.949842,21.1772,17.89)">
            <path d="M312.123,267.313C282.129,267.313 252.133,267.588 222.14,267.588L222.14,443.608L282.951,443.608L282.951,402.29L312.123,402.29C405.652,402.29 405.377,267.316 312.123,267.316L312.123,267.313ZM244.233,309.555C249.498,309.555 253.765,313.822 253.766,319.088C253.766,324.353 249.498,328.621 244.233,328.621C238.968,328.621 234.7,324.353 234.7,319.088C234.7,313.822 238.968,309.555 244.233,309.555ZM355.113,309.555C360.378,309.555 364.645,313.822 364.646,319.088C364.646,324.353 360.378,328.621 355.113,328.621C349.848,328.621 345.58,324.353 345.58,319.088C345.581,313.822 349.849,309.555 355.113,309.555ZM262.922,310.314L295.625,310.314L295.625,327.862L262.922,327.862L262.922,310.314ZM305.646,310.314L338.349,310.314L338.349,327.862L305.646,327.862L305.646,310.314ZM234.7,347.332L267.403,347.332L267.403,364.879L234.7,364.879L234.7,347.332Z" style="fill:url(#_Linear1);fill-rule:nonzero;"/>
        </g>
    </g>
    <defs>
        <linearGradient id="_Linear1" x1="0" y1="0" x2="1" y2="0" gradientUnits="userSpaceOnUse" gradientTransform="matrix(-102.915,-126.446,126.446,-102.915,325.042,394.035)"><stop offset="0" style="stop-color:rgb(3,81,163);stop-opacity:1"/><stop offset="1" style="stop-color:rgb(34,180,227);stop-opacity:1"/></linearGradient>
    </defs>
</svg>
