<?xml version="1.0" encoding="UTF-8" standalone="no"?>
<!DOCTYPE svg PUBLIC "-//W3C//DTD SVG 1.1//EN" "http://www.w3.org/Graphics/SVG/1.1/DTD/svg11.dtd">
<svg width="100%" height="100%" viewBox="0 0 300 300" version="1.1" xmlns="http://www.w3.org/2000/svg" xmlns:xlink="http://www.w3.org/1999/xlink" xml:space="preserve" xmlns:serif="http://www.serif.com/" style="fill-rule:evenodd;clip-rule:evenodd;stroke-linejoin:round;stroke-miterlimit:2;">
    <g transform="matrix(1,0,0,1,-32.1761,-40.4929)">
        <rect x="32.1761" y="40.4929" width="300" height="300" style="fill:url(#_Linear1);"/>
        <g transform="matrix(0.949837,0,0,0.949837,15.1702,9.58547)">
            <path d="M192.112,102.314C162.119,102.314 132.123,102.589 102.129,102.589L102.129,278.609L162.941,278.609L162.941,237.291L192.112,237.291C285.642,237.291 285.367,102.317 192.112,102.317L192.112,102.314ZM124.223,144.556C129.487,144.556 133.755,148.823 133.755,154.089C133.756,159.353 129.488,163.622 124.223,163.622C118.958,163.622 114.689,159.353 114.69,154.089C114.69,148.823 118.958,144.556 124.223,144.556ZM235.103,144.556C240.367,144.556 244.635,148.823 244.635,154.089C244.636,159.353 240.368,163.622 235.103,163.622C229.838,163.622 225.57,159.353 225.57,154.089C225.57,148.823 229.838,144.556 235.103,144.556ZM142.911,145.315L175.615,145.315L175.615,162.863L142.911,162.863L142.911,145.315ZM185.635,145.315L218.339,145.315L218.339,162.863L185.635,162.863L185.635,145.315ZM114.69,182.333L147.393,182.333L147.393,199.88L114.69,199.88L114.69,182.333Z" style="fill:white;fill-rule:nonzero;"/>
        </g>
    </g>
    <defs>
        <linearGradient id="_Linear1" x1="0" y1="0" x2="1" y2="0" gradientUnits="userSpaceOnUse" gradientTransform="matrix(299.926,0,0,299.926,32.1984,190.418)"><stop offset="0" style="stop-color:rgb(3,81,163);stop-opacity:1"/><stop offset="1" style="stop-color:rgb(34,180,227);stop-opacity:1"/></linearGradient>
    </defs>
</svg>
