<?xml version="1.0" encoding="UTF-8"?>
<svg width="332.38mm" height="67.384mm" version="1.1" viewBox="0 0 332.38 67.384" xmlns="http://www.w3.org/2000/svg" xmlns:cc="http://creativecommons.org/ns#" xmlns:dc="http://purl.org/dc/elements/1.1/" xmlns:rdf="http://www.w3.org/1999/02/22-rdf-syntax-ns#" xmlns:xlink="http://www.w3.org/1999/xlink">
<defs>
<linearGradient id="a" x1="360.59" x2="308.5" y1="237.28" y2="173.28" gradientTransform="matrix(.75517 0 0 .75517 -261.52 -55.869)" gradientUnits="userSpaceOnUse">
<stop stop-color="#0351a3" offset="0"/>
<stop stop-color="#22b4e3" offset="1"/>
</linearGradient>
</defs>
<metadata>
<rdf:RDF>
<cc:Work rdf:about="">
<dc:format>image/svg+xml</dc:format>
<dc:type rdf:resource="http://purl.org/dc/dcmitype/StillImage"/>
<dc:title/>
</cc:Work>
</rdf:RDF>
</metadata>
<g transform="translate(28.545 -74.883)">
<rect x="-25.338" y="87.477" width="52.385" height="26.46" fill="#fff" stroke="#fff" stroke-width=".35278"/>
<path d="m5.8483 74.883c-11.465 0-22.929 0.1046-34.394 0.1046v67.279h23.244v-15.793h11.15c35.749 0 35.645-51.591 0-51.591zm-25.95 16.146c2.0123 8.8e-5 3.6436 1.6314 3.6437 3.6437 1.3e-4 2.0125-1.6312 3.6441-3.6437 3.6441s-3.6438-1.6316-3.6437-3.6441c5e-5 -2.0124 1.6314-3.6436 3.6437-3.6437zm42.382 0c2.0123 8.8e-5 3.6436 1.6314 3.6437 3.6437 1.79e-4 2.0125-1.6312 3.6441-3.6437 3.6441-2.0124 0-3.6438-1.6316-3.6436-3.6441 0-2.0124 1.6313-3.6436 3.6436-3.6437zm-35.238 0.29043h12.5v6.707h-12.5zm16.331 0h12.5v6.707h-12.5zm-27.118 14.149h12.5v6.707h-12.5z" fill="url(#a)"/>
<path d="m60.933 93.696h11.655c9.8891 0 9.9479 14.598 0 14.598h-11.655zm11.655-7.4168c-6.475 0-12.95 0.05887-19.425 0.05887v41.205h7.77v-12.126h11.655c20.19 0 20.131-29.138 0-29.138z" fill="#fff"/>
<path d="m95.348 98.523v15.246c0 9.0062 5.0623 14.245 12.008 14.245 4.0616 0 6.8282-1.4127 9.8302-4.3559l0.47096 3.9439h6.4161v-29.079h-7.1225v14.834c0 4.4148-3.0021 8.1232-7.4169 8.1232-4.5914 0-7.0048-3.3552-7.0048-7.77v-15.187z" fill="#fff"/>
<path d="m132.46 98.523v6.5339h12.832l-13.892 19.484v3.002h24.428v-7.0636h-13.48l13.362-18.542v-3.4141z" fill="#fff"/>
<path d="m162.12 98.523v6.5339h12.832l-13.892 19.484v3.002h24.428v-7.0636h-13.48l13.362-18.542v-3.4141z" fill="#fff"/>
<path d="m203.73 127.54h7.77v-34.141h13.068v-7.0636h-33.906v7.0636h13.068z" fill="#fff"/>
<path d="m237.25 97.934c-9.2416 0-15.01 6.8282-15.01 15.128 0 8.3587 5.651 15.128 15.069 15.128 9.4181 0 15.128-6.7693 15.128-15.128 0-8.2998-5.9453-15.128-15.187-15.128zm0.0589 6.5339c4.8268 0 7.8878 4.2382 7.8878 8.5941 0 4.4148-2.6489 8.5352-7.8878 8.5352-5.2389 0-7.8878-4.1205-7.8878-8.5352 0-4.3559 2.7077-8.5941 7.8878-8.5941z" fill="#fff"/>
<path d="m273.81 97.934c-9.2417 0-15.01 6.8282-15.01 15.128 0 8.3587 5.6509 15.128 15.069 15.128 9.4182 0 15.128-6.7693 15.128-15.128 0-8.2998-5.9452-15.128-15.187-15.128zm0.0589 6.5339c4.8268 0 7.8877 4.2382 7.8877 8.5941 0 4.4148-2.6489 8.5352-7.8877 8.5352-5.2389 0-7.8878-4.1205-7.8878-8.5352 0-4.3559 2.7077-8.5941 7.8878-8.5941z" fill="#fff"/>
<path d="m296.71 86.397v41.146h7.1225v-41.146z" fill="#fff"/>
</g>
</svg>
